<?xml version="1.0" encoding="UTF-8"?> <svg xmlns="http://www.w3.org/2000/svg" id="Layer_2" viewBox="0 0 52.3 59.89"><defs><style>.cls-1{fill:#ea0029;}</style></defs><g id="Nosotros"><path class="cls-1" d="m26.34,59.89c-.15,0-.3-.04-.43-.11L.64,45.41c-.27-.15-.44-.44-.44-.75L0,15.59c0-.31.16-.6.43-.76L25.51.12c.27-.16.6-.16.88,0l25.27,14.36c.27.15.44.44.44.75l.2,29.07c0,.31-.16.6-.43.76l-25.08,14.71c-.14.08-.29.12-.44.12ZM1.94,44.14l24.39,13.86,24.21-14.19-.19-28.06L25.96,1.89,1.75,16.08l.19,28.06Z"></path><path class="cls-1" d="m26.32,55.27l-3.21-1.82.87-1.52,2.33,1.32,2.29-1.34.88,1.51-3.16,1.86Zm-6.88-3.91l-5.52-3.14.87-1.52,5.52,3.14-.87,1.52Zm13.7-.08l-.88-1.51,5.47-3.21.88,1.51-5.47,3.21Zm-22.89-5.14l-5.94-3.38v-.51h.88s.43-.76.43-.76l5.5,3.12-.87,1.52Zm32.02-.21l-.88-1.51,5.47-3.21.88,1.51-5.47,3.21Zm4.14-6.01l-.04-6.35h1.75s.04,6.33.04,6.33h-1.75Zm-42.13-1.92l-.04-6.35h1.75s.04,6.33.04,6.33h-1.75Zm42.06-8.66l-.04-6.35h1.75s.04,6.33.04,6.33h-1.75Zm-42.13-1.92l-.04-6.35h1.75s.04,6.33.04,6.33h-1.75Zm42.06-8.66v-.61s-4.12-2.34-4.12-2.34l.87-1.52,4.99,2.84v1.62s-1.74.01-1.74.01Zm-39.86-.63l-.88-1.51,5.47-3.21.88,1.51-5.47,3.21Zm32.07-4.4l-5.52-3.14.87-1.52,5.52,3.14-.87,1.52Zm-22.95-.95l-.88-1.51,5.47-3.21.88,1.51-5.47,3.21Zm13.75-4.28l-3.28-1.86-1.35.79-.88-1.51,2.22-1.3,4.16,2.36-.87,1.52Z"></path><path class="cls-1" d="m24.29,43.03c-.13,0-.27-.03-.4-.1l-10.04-5.16c-.29-.15-.47-.45-.47-.78v-5.96c0-.31.16-.59.42-.75.26-.16.59-.17.86-.03l7.76,4.04,10.49-15.48c.25-.37.75-.49,1.14-.28l4.43,2.42c.22.12.37.32.43.56.06.24.01.49-.12.7l-13.76,20.42c-.17.25-.44.39-.73.39Zm-9.16-6.57l8.87,4.56,12.79-18.98-2.89-1.58-10.48,15.47c-.25.37-.73.49-1.13.28l-7.17-3.74v3.99Z"></path></g></svg> 