<?xml version="1.0" encoding="UTF-8"?> <svg xmlns="http://www.w3.org/2000/svg" id="Layer_2" viewBox="0 0 52.29 59.89"><defs><style>.cls-1{fill:#ea0029;}</style></defs><g id="Nosotros"><path class="cls-1" d="m1.07,45.52c-.48,0-.87-.39-.88-.87L0,15.59c0-.31.16-.6.43-.76L25.51.12c.42-.24.95-.11,1.2.31.24.42.1.95-.31,1.2L1.75,16.08l.19,28.56c0,.48-.39.88-.87.88h0Z"></path><path class="cls-1" d="m26.34,59.89c-.3,0-.59-.15-.76-.43-.24-.42-.1-.95.31-1.2l24.64-14.45-.19-28.56c0-.48.39-.88.87-.88h0c.48,0,.87.39.88.87l.2,29.07c0,.31-.16.6-.43.76l-25.07,14.71c-.14.08-.29.12-.44.12Z"></path><path class="cls-1" d="m24.33,40.29h-8.64v-22.59h8.64v22.59Zm-6.89-1.75h5.14v-19.09h-5.14v19.09Z"></path><path class="cls-1" d="m36.6,44.57h-8.64V15.05h8.64v29.52Zm-6.89-1.75h5.14v-26.02h-5.14v26.02Z"></path><path class="cls-1" d="m24.35,18.07h-1.75c0-1.43-1.16-2.58-2.58-2.58s-2.58,1.16-2.58,2.58h-1.75c0-2.39,1.94-4.33,4.33-4.33s4.33,1.94,4.33,4.33Z"></path><polygon class="cls-1" points="20.01 46.51 15.67 40.23 17.11 39.24 20.01 43.43 22.91 39.24 24.35 40.23 20.01 46.51"></polygon><rect class="cls-1" x="28.83" y="18.42" width="2.94" height="1.75"></rect><rect class="cls-1" x="28.83" y="21.78" width="3.76" height="1.75"></rect><rect class="cls-1" x="28.83" y="25.14" width="2.94" height="1.75"></rect><rect class="cls-1" x="28.83" y="28.49" width="3.76" height="1.75"></rect><rect class="cls-1" x="28.83" y="31.85" width="2.94" height="1.75"></rect><rect class="cls-1" x="28.83" y="35.21" width="3.76" height="1.75"></rect><rect class="cls-1" x="28.83" y="38.57" width="2.94" height="1.75"></rect><path class="cls-1" d="m49.42,15.22l-5.52-3.14.87-1.52,5.52,3.14-.87,1.52Zm-9.2-5.23l-5.52-3.14.87-1.52,5.52,3.14-.87,1.52Zm-9.2-5.23l-5.52-3.14.87-1.52,5.52,3.14-.87,1.52Z"></path><path class="cls-1" d="m25.91,59.77l-5.52-3.14.87-1.52,5.52,3.14-.87,1.52Zm-9.2-5.23l-5.52-3.14.87-1.52,5.52,3.14-.87,1.52Zm-9.2-5.23l-5.52-3.14.87-1.52,5.52,3.14-.87,1.52Z"></path></g></svg> 