<?xml version="1.0" encoding="UTF-8"?> <svg xmlns="http://www.w3.org/2000/svg" id="Layer_2" viewBox="0 0 62.95 60.16"><defs><style>.cls-1{fill:#ea0029;}</style></defs><g id="Nosotros"><path class="cls-1" d="m31.47,60.16l-26.05-15.04V15.04L31.47,0l26.05,15.04v30.08l-26.05,15.04ZM7.18,44.11l24.3,14.03,24.3-14.03v-28.06L31.47,2.02,7.18,16.05v28.06Z"></path><path class="cls-1" d="m62.95,24.84h-1.75v-2.2h1.75v2.2Zm0-6.43h-1.75v-6h.48l.54-.93.74.42v6.51Zm-5.27-7.53l-5.5-3.17.88-1.52,5.5,3.17-.88,1.52Z"></path><path class="cls-1" d="m1.75,24.84H0v-2.2h1.75v2.2Zm0-6.43H0v-6.51l.74-.42.54.93h.48v6Zm3.52-7.53l-.88-1.52,5.5-3.17.88,1.52-5.5,3.17Z"></path><path class="cls-1" d="m9.89,54.06l-5.5-3.17.88-1.52,5.5,3.17-.88,1.52ZM.74,48.77l-.74-.42v-6.51h1.75v6h-.48l-.54.93Zm1.01-11.16H0v-2.19h1.75v2.19Z"></path><path class="cls-1" d="m53.06,54.06l-.88-1.52,5.5-3.17.88,1.52-5.5,3.17Zm9.16-5.29l-.54-.93h-.48v-6h1.75v6.51l-.74.42Zm.74-11.16h-1.75v-2.19h1.75v2.19Z"></path><path class="cls-1" d="m28.07,43.66c-.15,0-.3-.04-.44-.12-.25-.15-6.04-3.63-7.22-10.62-.95-5.65,1.41-11.83,7-18.37.31-.37.87-.41,1.23-.1.37.31.41.87.1,1.23-5.23,6.12-7.45,11.82-6.6,16.92,1.02,6.18,6.33,9.4,6.38,9.43.42.25.55.78.31,1.2-.16.28-.46.43-.75.43Z"></path><path class="cls-1" d="m28.42,43.66c-.3,0-.59-.15-.75-.43-.25-.42-.11-.95.31-1.2.05-.03,5.36-3.25,6.38-9.43.85-5.11-1.38-10.8-6.6-16.92-.31-.37-.27-.92.1-1.23.37-.32.92-.27,1.23.1,5.59,6.54,7.94,12.73,7,18.37-1.17,6.99-6.97,10.48-7.22,10.63-.14.08-.29.12-.44.12Z"></path><path class="cls-1" d="m34.41,25.13c-.29,0-.58-.15-.75-.42-.25-.41-.12-.95.29-1.2,2.76-1.68,6.23-2.98,10.31-3.87.47-.1.94.2,1.04.67.1.47-.2.94-.67,1.04-3.9.85-7.19,2.08-9.78,3.66-.14.09-.3.13-.45.13Z"></path><path class="cls-1" d="m29.12,43.65c-.73,0-1.18-.05-1.25-.06-.48-.06-.82-.49-.76-.97.06-.48.5-.82.97-.77.06,0,6.23.66,10.79-3.64,3.77-3.55,5.45-9.43,4.99-17.47-.03-.48.34-.9.83-.92.47-.02.9.34.92.83.48,8.59-1.39,14.93-5.56,18.86-3.9,3.67-8.69,4.14-10.93,4.14Z"></path></g></svg> 