<?xml version="1.0" encoding="UTF-8"?> <svg xmlns="http://www.w3.org/2000/svg" id="Layer_2" viewBox="0 0 101.5 104.55"><defs><style>.cls-1{stroke-miterlimit:10;}.cls-1,.cls-2,.cls-3,.cls-4,.cls-5,.cls-6,.cls-7,.cls-8,.cls-9,.cls-10{fill:none;stroke:#ea0029;stroke-width:1.5px;}.cls-11{fill:#ea0029;font-family:Novecentosanswide-Bold, 'Novecento sans wide';font-size:18.78px;font-weight:700;}.cls-2{stroke-dasharray:0 0 2.86 2.86;}.cls-2,.cls-3,.cls-4,.cls-5,.cls-6,.cls-7,.cls-8,.cls-9,.cls-10{stroke-linejoin:round;}.cls-3{stroke-dasharray:0 0 2.81 2.81;}.cls-4{stroke-dasharray:0 0 3 3;}.cls-6{stroke-dasharray:0 0 3.2 3.2;}.cls-7{stroke-dasharray:0 0 2.86 2.86;}.cls-8{stroke-dasharray:0 0 2.71 2.71;}.cls-9{stroke-dasharray:0 0 2.63 2.63;}.cls-10{stroke-dasharray:0 0 2.7 2.7;}</style></defs><g id="Empleo"><polygon class="cls-1" points="95.47 78.27 50.78 103.68 6.43 77.69 6.76 26.28 51.45 .87 95.81 26.86 95.47 78.27"></polygon><line class="cls-5" x1="85.85" y1="14.66" x2="87.14" y2="15.42"></line><line class="cls-2" x1="89.6" y1="16.87" x2="98.23" y2="21.94"></line><polyline class="cls-5" points="99.46 22.66 100.75 23.42 100.73 24.92"></polyline><line class="cls-6" x1="100.68" y1="28.12" x2="100.5" y2="39.32"></line><line class="cls-5" x1="100.48" y1="40.92" x2="100.46" y2="42.42"></line><line class="cls-5" x1="15.02" y1="89.36" x2="13.72" y2="88.6"></line><line class="cls-8" x1="11.39" y1="87.22" x2="3.21" y2="82.42"></line><polyline class="cls-5" points="2.04 81.73 .75 80.97 .77 79.47"></polyline><line class="cls-9" x1=".81" y1="76.84" x2="1.01" y2="62.38"></line><line class="cls-5" x1="1.02" y1="61.07" x2="1.04" y2="59.57"></line><line class="cls-5" x1="15.65" y1="14.66" x2="14.36" y2="15.42"></line><line class="cls-7" x1="11.9" y1="16.87" x2="3.27" y2="21.94"></line><polyline class="cls-5" points="2.04 22.66 .75 23.42 .77 24.92"></polyline><line class="cls-6" x1=".82" y1="28.12" x2="1" y2="39.32"></line><line class="cls-5" x1="1.02" y1="40.92" x2="1.04" y2="42.42"></line><line class="cls-5" x1="86.48" y1="89.36" x2="87.56" y2="88.72"></line><line class="cls-3" x1="89.98" y1="87.3" x2="98.46" y2="82.32"></line><polyline class="cls-5" points="99.67 81.61 100.75 80.97 100.73 79.72"></polyline><line class="cls-10" x1="100.7" y1="77.02" x2="100.49" y2="62.17"></line><line class="cls-5" x1="100.47" y1="60.82" x2="100.46" y2="59.57"></line><path class="cls-1" d="m40.25,69.71l10.56,4.64s.4.33,2.12,0"></path><path class="cls-1" d="m11.64,80.74h21.32s13.85,5.18,16.93,6.08c3.08.9,6.95-2.32,6.95-2.32l21.67-15.28c2.32-1.77,1.7-3.65.53-5.11-1.71-2.13-3.81-2.23-6.08-.9l-17.6,9.54"></path><path class="cls-1" d="m6.43,62.34h17.56s11.36-2.03,11.36-2.03c0,0,2.59-.76,5.68,1.01,3.09,1.78,10.17,4.57,10.17,4.57,0,0,5.04,1.43,4.27,5.95,0,0-.47,3.03-4.41,2.57"></path><path class="cls-1" d="m54.74,68.25l9.75-4.7s4.1-1.97,5.4,1.33"></path><path class="cls-1" d="m70.84,39.65c0,10.9-8.83,19.73-19.73,19.73s-19.73-8.83-19.73-19.73,8.83-19.73,19.73-19.73,19.73,8.83,19.73,19.73Z"></path><path class="cls-4" d="m67.35,39.65c0,8.96-7.27,16.23-16.23,16.23s-16.23-7.27-16.23-16.23,7.27-16.23,16.23-16.23,16.23,7.27,16.23,16.23Z"></path><text class="cls-11" transform="translate(45.23 45.14)"><tspan x="0" y="0">S</tspan></text><line class="cls-1" x1="51.05" y1="46.87" x2="51.05" y2="30.37"></line></g></svg> 