<?xml version="1.0" encoding="UTF-8"?> <svg xmlns="http://www.w3.org/2000/svg" id="Layer_2" viewBox="0 0 81.51 120.45"><defs><style>.cls-1,.cls-2{fill:none;stroke:#d4112c;stroke-miterlimit:10;stroke-width:1.5px;}.cls-2{stroke-dasharray:0 0 3 3;}</style></defs><g id="Empleo"><polygon class="cls-1" points="80.45 83.49 40.45 106.24 .75 82.98 1.05 36.96 41.05 14.21 80.75 37.48 80.45 83.49"></polygon><polyline class="cls-2" points="9.15 19.11 40.75 .87 72.36 19.11"></polyline><polyline class="cls-2" points="72.36 101.34 40.75 119.59 9.15 101.34"></polyline><polygon class="cls-1" points="46.94 62.77 46.94 50.12 59.36 35.61 55.8 32.57 44.38 45.96 39.44 45.96 28.03 32.57 24.47 35.61 37 50.26 37 67.14 34.3 72.46 22.92 70.95 22.26 76.19 37.86 78.26 37.86 78.25 37.88 78.2 42.75 68.63 43.5 68.63 48.28 75.53 44.97 87.12 50.05 88.55 54.3 73.43 46.94 62.77"></polygon><path class="cls-1" d="m47.34,34.73c0,2.96-2.4,5.37-5.37,5.37s-5.37-2.41-5.37-5.37,2.4-5.37,5.37-5.37,5.37,2.41,5.37,5.37Z"></path></g></svg> 