<?xml version="1.0" encoding="UTF-8"?> <svg xmlns="http://www.w3.org/2000/svg" id="Layer_2" viewBox="0 0 101.5 99.67"><defs><style>.cls-1{stroke-linecap:round;stroke-linejoin:round;}.cls-1,.cls-2,.cls-3{fill:none;stroke:#d4112c;stroke-width:1.5px;}.cls-2,.cls-3{stroke-miterlimit:10;}.cls-4{fill:#ea0029;}.cls-5{fill:#fff;}.cls-3{stroke-dasharray:0 0 3 3;}</style></defs><g id="Empleo"><path class="cls-2" d="m73.83,24.22c0,12.96-10.51,23.47-23.47,23.47s-23.47-10.51-23.47-23.47S37.39.75,50.36.75s23.47,10.51,23.47,23.47Z"></path><path class="cls-3" d="m69.87,24.22c0,10.78-8.74,19.51-19.52,19.51s-19.51-8.74-19.51-19.51S39.58,4.71,50.36,4.71s19.52,8.74,19.52,19.51Z"></path><path class="cls-1" d="m33.73,70.43l-22.02-22.2v-19.95c0-3.03-2.45-5.48-5.48-5.48S.75,25.25.75,28.28v37.12l14.83,19.5v12.17h.01c.05,1.04.89,1.85,1.92,1.85.03,0,.05,0,.08,0h0s14.2,0,14.2,0c1.07,0,1.93-.86,1.93-1.93,0-.03,0-.05,0-.08h0v-26.48Z"></path><path class="cls-1" d="m18.15,54.68c-2.15-2.13-5.62-2.12-7.75.02-2.13,2.15-2.13,5.62.02,7.75l9.97,9.92"></path><path class="cls-5" d="m67.77,70.43l22.02-22.2v-19.95c0-3.03,2.45-5.48,5.48-5.48s5.48,2.45,5.48,5.48v37.12l-14.83,19.5v12.17h0c-.05,1.04-.89,1.85-1.92,1.85-.03,0-.05,0-.08,0h0s-14.2,0-14.2,0c-1.07,0-1.93-.86-1.93-1.93,0-.03,0-.05,0-.08h0v-26.48Z"></path><path class="cls-1" d="m67.77,70.43l22.02-22.2v-19.95c0-3.03,2.45-5.48,5.48-5.48s5.48,2.45,5.48,5.48v37.12l-14.83,19.5v12.17h0c-.05,1.04-.89,1.85-1.92,1.85-.03,0-.05,0-.08,0h0s-14.2,0-14.2,0c-1.07,0-1.93-.86-1.93-1.93,0-.03,0-.05,0-.08h0v-26.48Z"></path><path class="cls-1" d="m83.35,54.68c2.15-2.13,5.62-2.12,7.75.02,2.13,2.15,2.13,5.62-.02,7.75l-9.97,9.92"></path><polyline class="cls-1" points="35.81 42.91 26.88 55.29 36.98 55.18"></polyline><polyline class="cls-1" points="47.71 48.13 43.02 63.27 36.98 55.18"></polyline><polyline class="cls-1" points="65.17 42.91 74.09 55.29 63.99 55.18"></polyline><polyline class="cls-1" points="53.27 48.13 57.96 63.27 63.99 55.18"></polyline><polygon class="cls-2" points="47.35 18.81 50.47 12.18 53.9 18.81 60.63 19.11 55.96 23.74 57.61 31.18 50.78 26.91 43.51 31.18 45.46 23.94 40.53 19.11 47.35 18.81"></polygon><path class="cls-4" d="m46.99,37.14c0,.66-.54,1.2-1.2,1.2s-1.2-.54-1.2-1.2.54-1.2,1.2-1.2,1.2.54,1.2,1.2"></path><path class="cls-2" d="m46.99,37.14c0,.66-.54,1.2-1.2,1.2s-1.2-.54-1.2-1.2.54-1.2,1.2-1.2,1.2.54,1.2,1.2Z"></path><path class="cls-4" d="m51.66,37.14c0,.66-.54,1.2-1.2,1.2s-1.2-.54-1.2-1.2.54-1.2,1.2-1.2,1.2.54,1.2,1.2"></path><path class="cls-2" d="m51.66,37.14c0,.66-.54,1.2-1.2,1.2s-1.2-.54-1.2-1.2.54-1.2,1.2-1.2,1.2.54,1.2,1.2Z"></path><path class="cls-4" d="m56.18,37.14c0,.66-.54,1.2-1.2,1.2s-1.2-.54-1.2-1.2.54-1.2,1.2-1.2,1.2.54,1.2,1.2"></path><path class="cls-2" d="m56.18,37.14c0,.66-.54,1.2-1.2,1.2s-1.2-.54-1.2-1.2.54-1.2,1.2-1.2,1.2.54,1.2,1.2Z"></path></g></svg> 