<?xml version="1.0" encoding="UTF-8"?> <svg xmlns="http://www.w3.org/2000/svg" xmlns:xlink="http://www.w3.org/1999/xlink" version="1.1" id="Layer_1" x="0px" y="0px" viewBox="0 0 305.27 88.8" style="enable-background:new 0 0 305.27 88.8;" xml:space="preserve"> <style type="text/css"> .st0{fill:#003764;} .st1{fill:#EA0029;} </style> <g> <path class="st0" d="M19.19,30.49L9.17,17.41l9.84,8.02l41.93-10.45L47.47,4.01l-0.01,0l-0.65-0.53c-2.51-1.74-6.3-0.85-6.3-0.85 L2.63,12.08v0.01l0.07,0.05l-0.07-0.03v26.15l16.57-4.14h0L19.19,30.49z"></path> <path class="st0" d="M50.63,41.42l10.02,13.09l-9.84-8.02L8.88,56.93L22.35,67.9l0,0l0.65,0.53c2.52,1.74,6.3,0.85,6.3,0.85 l37.88-9.45h0l0,0l-0.07-0.06l0.07,0.03V33.65L50.62,37.8L50.63,41.42L50.63,41.42z"></path> <path class="st0" d="M89.45,76.95h2.76c2.28,0,4.27,0.63,4.27,2.97c0,2.15-1.57,3.01-4.35,3.01h-0.64v3.33h-2.05V76.95z M92.24,81.27c1.69,0,2.2-0.37,2.2-1.25c0-1.03-0.71-1.29-2.25-1.29h-0.69v2.53H92.24z"></path> <path class="st0" d="M104.26,76.95h1.98l3.78,9.31h-2.19l-0.75-1.95h-3.75l-0.76,1.95h-2.1L104.26,76.95z M103.96,82.7h2.51 l-0.39-1.04c-0.27-0.73-0.6-1.66-0.84-2.37h-0.03c-0.24,0.71-0.57,1.64-0.87,2.42L103.96,82.7z"></path> <path class="st0" d="M119.3,76.81c0.94,0,1.85,0.22,2.59,0.58v2.07c-0.69-0.47-1.62-0.81-2.58-0.81c-1.8,0-3.03,1.25-3.03,2.95 c0,1.66,1.2,2.97,3.11,2.97c0.97,0,1.87-0.33,2.64-0.86v2.08c-0.8,0.43-1.8,0.62-2.72,0.62c-3,0-5.07-2.07-5.07-4.79 C114.23,78.91,116.3,76.81,119.3,76.81"></path> <polygon class="st0" points="127.51,76.95 129.55,76.95 129.55,81.06 129.58,81.08 132.83,76.95 135.26,76.95 131.74,81.27 135.56,86.26 133.04,86.26 129.58,81.6 129.55,81.62 129.55,86.26 127.51,86.26 "></polygon> <path class="st0" d="M143.55,76.95h1.98l3.78,9.31h-2.19l-0.74-1.95h-3.75l-0.76,1.95h-2.1L143.55,76.95z M143.25,82.7h2.51 l-0.39-1.04c-0.27-0.73-0.6-1.66-0.84-2.37h-0.03c-0.24,0.71-0.58,1.64-0.87,2.42L143.25,82.7z"></path> <path class="st0" d="M158.62,76.81c1.14,0,2.13,0.31,2.86,0.71v2.06c-0.78-0.54-1.8-0.92-2.82-0.92c-1.88,0-3.08,1.32-3.08,2.98 c0,1.62,1.16,2.98,3.07,2.98c0.42,0,0.84-0.08,1.14-0.21v-1.4h-1.62v-1.7h3.6v4.33c-0.84,0.46-2.01,0.77-3.17,0.77 c-2.98,0-5.08-2.02-5.08-4.76C153.52,78.89,155.64,76.81,158.62,76.81"></path> <rect x="167.51" y="76.95" class="st0" width="2.04" height="9.31"></rect> <path class="st0" d="M179.09,82.5c-0.6-0.81-1.17-1.6-1.75-2.4l-0.03,0.01c0.01,0.89,0.03,1.79,0.03,2.69v3.46h-1.97v-9.31h1.93 l2.8,3.76c0.6,0.81,1.17,1.6,1.75,2.41l0.03-0.02c-0.01-0.89-0.03-1.79-0.03-2.69v-3.46h1.97v9.31h-1.93L179.09,82.5z"></path> <path class="st0" d="M194.32,76.81c1.14,0,2.13,0.31,2.85,0.71v2.06c-0.78-0.54-1.8-0.92-2.81-0.92c-1.88,0-3.09,1.32-3.09,2.98 c0,1.62,1.16,2.98,3.07,2.98c0.42,0,0.84-0.08,1.14-0.21v-1.4h-1.62v-1.7h3.6v4.33c-0.84,0.46-2.01,0.77-3.16,0.77 c-2.98,0-5.08-2.02-5.08-4.76C189.23,78.89,191.35,76.81,194.32,76.81"></path> <path class="st1" d="M152.87,52.22h-3.16c-2.11,0-2.21-2.47-2.21-2.47V29.12h-11.21l-2.55,6.87h2.55v17.24 c0,2.82,0.65,4.78,1.95,5.88c1.3,1.09,3.38,1.64,6.25,1.64h4.55l3.85-4.7v4.7h11.28V29.12h-11.28V52.22z"></path> <path class="st1" d="M225.11,33.82l-3.85-4.7h-4.54c-2.91,0-4.97,0.52-6.18,1.54c-1.35,1.17-2.01,3.16-2.01,5.98v16.58 c0,2.82,0.65,4.78,1.94,5.88c1.3,1.09,3.38,1.64,6.25,1.64h4.54l3.85-4.7v4.7h11.28V29.12h-11.28V33.82z M225.11,52.22h-3.09 c-0.59-0.08-2.25-0.45-2.25-2.19h-0.04V39.81c0.1-0.65,0.51-2.14,2.15-2.16h3.22V52.22z"></path> <path class="st1" d="M262.02,29.12h-4.88l-3.85,4.7v-4.7h-11.28l-2.55,6.87h2.55v24.76h11.28V37.72h3.14v0.02 c2.11,0,2.21,2.46,2.21,2.46l0.02,0v20.55h11.21v-23.3c0-3.05-0.56-5.19-1.67-6.44C267.08,29.75,265.02,29.12,262.02,29.12"></path> <path class="st1" d="M291.35,29.12v4.7l-3.84-4.7h-4.55c-2.91,0-4.97,0.52-6.18,1.54c-1.34,1.17-2.01,3.16-2.01,5.98v16.58 c0,2.82,0.64,4.78,1.95,5.88c1.3,1.09,3.38,1.64,6.25,1.64h4.55l3.84-4.7v4.7h11.28V29.12H291.35z M291.35,52.22h-3.05 c-0.59-0.08-2.24-0.45-2.24-2.19h-0.08v-9.92h0c0,0,0.1-2.44,2.19-2.47h3.18V52.22z"></path> <polygon class="st1" points="167.4,21.74 169.95,21.74 169.95,60.75 181.17,60.75 181.17,14.87 169.95,14.87 "></polygon> <path class="st1" d="M203.43,37.65l2.99-8.53h-8.91v-7.99h-10.54l-2.61,7.99h2.61v24.66c0,2.61,0.6,4.42,1.8,5.44 c1.2,1.01,3.13,1.52,5.78,1.52h1.72h1.24h4.33l2.9-7.9h-7.23v-15.2H203.43z"></path> <path class="st1" d="M109.65,24.74h17.84l3.8-9.87h-24.2c-4.5,0-7.77,1.02-9.81,3.06c-2.04,2.04-3.06,5.3-3.06,9.8v1.93 c0,4.5,1.02,7.77,3.06,9.8c2.04,2.04,5.3,3.05,9.81,3.05h10.16c0,0,2.47,0.1,2.47,2.21l0,6.46h-22.7l-6.74,9.62h24.67l4.77-6.23 v6.07c3.94-0.08,6.72-1.2,8.62-3.1c1.97-1.97,2.96-5.06,2.96-9.26v-3.22c0-4.2-0.99-7.28-2.96-9.26c-1.97-1.97-5.06-2.95-9.26-2.95 h-9.42c-2.57,0-3.85-1.29-3.85-3.86V28.6C105.79,26.02,107.08,24.74,109.65,24.74"></path> </g> </svg> 